<?xml version="1.0" standalone="no"?><!DOCTYPE svg PUBLIC "-//W3C//DTD SVG 1.1//EN" "http://www.w3.org/Graphics/SVG/1.1/DTD/svg11.dtd"><svg class="icon" width="200px" height="200.00px" viewBox="0 0 1024 1024" version="1.1" xmlns="http://www.w3.org/2000/svg"><path fill="" d="M512 364.544C254.08 364.544 40.789333 553.685333 5.248 799.701333A507.946667 507.946667 0 0 1 0 727.125333c0-280.405333 229.205333-507.733333 512-507.733333s512 227.328 512 507.733333c0 24.661333-1.834667 48.853333-5.248 72.533334C983.210667 553.728 769.92 364.586667 512 364.586667z m0 160.682667c-162.645333 0-297.173333 119.296-319.616 274.474666a321.408 321.408 0 0 1-3.328-45.781333c0-176.853333 144.597333-320.213333 322.944-320.213333s322.944 143.36 322.944 320.213333c0 15.573333-1.194667 30.805333-3.328 45.781333-22.442667-155.178667-156.970667-274.474667-319.616-274.474666z m0 114.858666c-94.592 0-172.842667 69.376-185.898667 159.573334a186.837333 186.837333 0 0 1-1.92-26.581334c0-102.826667 84.053333-186.24 187.818667-186.24 103.722667 0 187.818667 83.370667 187.818667 186.24 0 9.045333-0.682667 17.92-1.92 26.624-13.056-90.24-91.306667-159.616-185.898667-159.616z" /></svg>